<svg xmlns="http://www.w3.org/2000/svg" viewBox="0 0 64 64" fill="none">
  <rect width="64" height="64" rx="14" fill="#0D1117"/>
  <path d="M18 16h28a2 2 0 012 2v28a2 2 0 01-2 2H18a2 2 0 01-2-2V18a2 2 0 012-2z" fill="#1C2333" stroke="#3B82F6" stroke-width="1.5"/>
  <path d="M22 20h4v24h-4z" fill="#3B82F6" opacity="0.3"/>
  <path d="M30 24h12M30 28h10M30 32h8M30 36h11M30 40h9" stroke="#8B9FC6" stroke-width="1.5" stroke-linecap="round"/>
  <circle cx="48" cy="16" r="8" fill="#3B82F6"/>
  <path d="M45 16l2 2 4-4" stroke="white" stroke-width="1.5" stroke-linecap="round" stroke-linejoin="round"/>
</svg>
